<svg width="24" height="16" viewBox="0 0 24 16" fill="none" xmlns="http://www.w3.org/2000/svg">
<g clip-path="url(#clip0_4246_330)">
<path d="M0 2C0 0.895431 0.895431 0 2 0H22C23.1046 0 24 0.895431 24 2V14C24 15.1046 23.1046 16 22 16H2C0.89543 16 0 15.1046 0 14V2Z" fill="white"/>
<path d="M18.6052 12.5636C19.527 12.5636 19.9608 12.2119 20.3398 11.1458L22 6.48928H21.0388L19.9255 10.0918H19.906L18.7927 6.49416H17.8042L19.4058 10.9262L19.32 11.1958C19.2594 11.5817 18.913 11.8569 18.5231 11.8285C18.4487 11.8285 18.3043 11.8208 18.2458 11.813V12.5449C18.3649 12.5612 18.4853 12.5689 18.6052 12.5685V12.5636ZM15.4019 10.2317C14.8977 10.2317 14.5777 9.98775 14.5777 9.61855C14.5777 9.23593 14.8864 9.01311 15.4763 8.97773L16.527 8.91146V9.25545C16.5038 9.82226 16.0253 10.2634 15.4585 10.2403C15.4393 10.2394 15.4206 10.2378 15.4019 10.2362V10.2317ZM15.1482 10.9543C15.7203 10.9697 16.2554 10.6717 16.5429 10.1768H16.5624V10.9087H17.4374V7.87745C17.4374 6.99836 16.7344 6.43195 15.652 6.43195C14.6481 6.43195 13.9056 7.00608 13.8784 7.79531H14.7302C14.8319 7.39399 15.2133 7.12928 15.6248 7.17401C16.203 7.17401 16.527 7.44359 16.527 7.93966V8.27552L15.3479 8.34586C14.25 8.41214 13.6564 8.86144 13.6564 9.64295C13.6555 10.4354 14.2687 10.9587 15.1478 10.9587L15.1482 10.9543ZM10.0774 5.61425H11.1671C11.9876 5.61425 12.4564 6.05177 12.4564 6.82148C12.4564 7.59119 11.9876 8.03237 11.1634 8.03237H10.0774V5.61425ZM9.132 4.8173V10.9075H10.0774V8.83135H11.3862C12.4524 8.88869 13.3628 8.07099 13.4201 7.00486C13.4234 6.94428 13.4238 6.8841 13.4213 6.82351C13.4718 5.76917 12.6581 4.87382 11.6038 4.82299C11.5416 4.82014 11.4798 4.82055 11.4176 4.8234L9.132 4.8173ZM5.99419 5.95377C5.45096 5.92246 4.9862 6.26239 4.72841 6.26239C4.47062 6.26239 4.07214 5.96963 3.64235 5.97776C3.0731 5.9924 2.55426 6.30752 2.27899 6.80603C1.69306 7.81402 2.12651 9.30628 2.69292 10.1264C2.97023 10.533 3.30283 10.9783 3.73994 10.9624C4.15387 10.9469 4.31814 10.6928 4.81827 10.6928C5.3184 10.6928 5.46681 10.9624 5.90433 10.9543C6.35729 10.9465 6.64273 10.5477 6.92085 10.141C7.11684 9.85317 7.26932 9.53804 7.37382 9.20584C6.83994 8.97245 6.49391 8.4467 6.49107 7.86403C6.4992 7.35007 6.76837 6.87597 7.20589 6.60638C6.92695 6.21034 6.47927 5.96719 5.995 5.95011L5.99419 5.95377ZM5.65507 5.41583C5.41721 5.7155 5.05329 5.8875 4.67067 5.88058C4.64627 5.50732 4.77314 5.14015 5.02239 4.86121C5.27042 4.57333 5.62011 4.3928 5.99825 4.35742C6.02509 4.74126 5.90189 5.12022 5.65426 5.41461" fill="black"/>
</g>
<defs>
<clipPath id="clip0_4246_330">
<rect width="24" height="16" fill="white"/>
</clipPath>
</defs>
</svg>
