<svg width="14" height="18" viewBox="0 0 14 18" fill="none" xmlns="http://www.w3.org/2000/svg">
<g clip-path="url(#clip0_4058_301)">
<path d="M11.4436 2.49885C10.0359 1.25681 8.21428 0.677197 6.30982 0.925604C3.49453 1.17401 1.09326 3.49248 0.679247 6.22497C0.348036 8.29503 1.09326 10.3651 2.58371 11.8555C2.66651 11.9383 2.74931 12.0211 2.74931 12.1868V12.932C2.74931 13.6772 3.24613 14.2568 3.82574 14.588V15.7473C3.82574 16.5753 4.48816 17.2377 5.31619 17.2377H8.8767C9.70472 17.2377 10.3671 16.5753 10.3671 15.7473V14.588C11.0296 14.3396 11.4436 13.6772 11.4436 12.932V12.1868C11.4436 12.0211 11.5264 11.9383 11.6092 11.8555C12.934 10.6135 13.5964 8.95745 13.5964 7.2186C13.5964 5.39694 12.8512 3.74089 11.4436 2.49885ZM8.9595 15.6645C8.9595 15.7473 8.8767 15.8301 8.7939 15.8301H5.31619C5.23339 15.8301 5.15058 15.7473 5.15058 15.6645V14.588H8.9595V15.6645ZM10.6984 10.8619C10.2843 11.1931 10.1187 11.6899 10.1187 12.1868V12.932C10.1187 13.1804 9.95313 13.346 9.70472 13.346H4.57097C4.32256 13.346 4.15695 13.1804 4.15695 12.932V12.1868C4.15695 11.6899 3.90855 11.2759 3.57734 10.8619C2.3353 9.70267 1.75568 8.12943 2.08689 6.47337C2.3353 4.23771 4.23976 2.49885 6.47542 2.25045C6.64103 2.25045 6.88944 2.25045 7.05504 2.25045C8.37988 2.25045 9.62192 2.74726 10.5328 3.57529C11.6092 4.56892 12.1888 5.89376 12.1888 7.3014C12.2716 8.62624 11.692 9.95108 10.6984 10.8619Z" fill="#7C7A7D"/>
</g>
<defs>
<clipPath id="clip0_4058_301">
<rect width="13" height="16.3121" fill="white" transform="translate(0.59375 0.84375)"/>
</clipPath>
</defs>
</svg>
