<svg width="24" height="16" viewBox="0 0 24 16" fill="none" xmlns="http://www.w3.org/2000/svg">
<g clip-path="url(#clip0_4246_331)">
<path d="M0 2C0 0.895431 0.895431 0 2 0H22C23.1046 0 24 0.895431 24 2V14C24 15.1046 23.1046 16 22 16H2C0.89543 16 0 15.1046 0 14V2Z" fill="white"/>
<path d="M19.5621 8.05217C19.5621 4.47286 16.5746 1.99892 13.3011 2H10.4842C7.17174 1.99881 4.44531 4.47361 4.44531 8.05217C4.44531 11.326 7.17181 14.0158 10.4842 13.9999H13.3011C16.5743 14.0157 19.5621 11.3251 19.5621 8.05217Z" fill="#0079BE"/>
<path d="M10.5039 2.50781C7.4771 2.50875 5.02452 4.96713 5.02344 8.00121C5.02419 11.0348 7.47689 13.4928 10.5039 13.4939C13.5313 13.493 15.9847 11.0348 15.985 8.00121C15.9846 4.96706 13.5314 2.50889 10.5039 2.50781Z" fill="white"/>
<path d="M7.03906 7.98563C7.04194 6.50301 7.96604 5.23872 9.26911 4.73633V11.2342C7.96604 10.7321 7.04191 9.46847 7.03906 7.98567V7.98563ZM11.7555 11.2358V4.73651C13.0591 5.23771 13.9847 6.50273 13.987 7.98603C13.9846 9.4698 13.0591 10.7339 11.7555 11.236V11.2358Z" fill="#0079BE"/>
</g>
<defs>
<clipPath id="clip0_4246_331">
<rect width="24" height="16" fill="white"/>
</clipPath>
</defs>
</svg>
