<svg width="24" height="16" viewBox="0 0 24 16" fill="none" xmlns="http://www.w3.org/2000/svg">
<g clip-path="url(#clip0_4246_332)">
<path d="M0 2C0 0.895431 0.895431 0 2 0H22C23.1046 0 24 0.895431 24 2V14C24 15.1046 23.1046 16 22 16H2C0.89543 16 0 15.1046 0 14V2Z" fill="white"/>
<path d="M14.2921 7.99262C14.2939 7.56276 14.1328 7.13228 13.8084 6.80788C13.4833 6.48281 13.0518 6.32177 12.621 6.32435C12.619 6.32435 12.617 6.32422 12.6148 6.32422C11.6794 6.32422 10.9375 7.06599 10.9375 8.00163C10.9375 8.92804 11.6886 9.67891 12.6148 9.67891C13.5505 9.67891 14.2923 8.937 14.2923 8.00163C14.2923 7.99855 14.2921 7.99565 14.2921 7.99262Z" fill="#F26E21"/>
<path d="M10.6266 8.71028C10.3759 8.96126 10.1445 9.05931 9.89527 9.06462C9.28809 9.05917 8.84168 8.60951 8.84168 7.96843C8.84168 7.64572 8.96387 7.38123 9.15743 7.15528C9.33895 6.98295 9.57279 6.87161 9.8417 6.87161C10.132 6.87161 10.3579 6.96837 10.6158 7.22643V6.48453C10.3579 6.35557 10.1319 6.29102 9.8417 6.29102C9.43164 6.32032 9.04501 6.486 8.74845 6.74617C8.66298 6.82307 8.58107 6.90797 8.51162 7.00513C8.29499 7.2859 8.16406 7.62971 8.16406 8.00081C8.16406 8.93614 8.90623 9.64579 9.84165 9.64579C9.8462 9.64579 9.85071 9.64539 9.85512 9.64534C9.86141 9.64543 9.86761 9.64579 9.87386 9.64579C10.1319 9.64579 10.3579 9.58142 10.6481 9.45236L10.6266 8.71028C10.6157 8.72117 10.6374 8.73129 10.6266 8.7416V8.71028Z" fill="#2B2B2B"/>
<path d="M16.4106 6.75302L15.6801 8.54909L14.8414 6.41992H14.1641L15.4866 9.67798H15.8414L17.2285 6.41992H16.5512L16.4106 6.75302Z" fill="#2B2B2B"/>
<path d="M17.4844 7.83931V9.58136H19.2264H19.2585V9.06505H18.7102H18.1295V8.48454V8.19431H19.2264V7.64575H18.1295V6.9684H19.2585V6.41992H17.4844V7.83931Z" fill="#2B2B2B"/>
<path d="M2.90339 6.41992H2V9.58136H2.90334C3.38714 9.58136 3.74192 9.45221 4.03224 9.2264C4.38702 8.93608 4.61292 8.48459 4.61292 8.0008C4.61296 7.06507 3.93543 6.41992 2.90339 6.41992ZM3.64525 8.80716C3.45169 8.96838 3.19362 9.06505 2.8065 9.06505H2.61294V6.96835H2.7742C3.16132 6.96835 3.41939 7.03286 3.61299 7.22633C3.83876 7.41976 3.96786 7.71026 3.96786 8.00066C4.00012 8.29098 3.87111 8.61342 3.64525 8.80716Z" fill="#2B2B2B"/>
<path d="M5.51914 6.41992H4.90625V9.58127H5.51914V6.41992Z" fill="#2B2B2B"/>
<path d="M7.06386 7.64657C6.67683 7.51756 6.57993 7.42071 6.57993 7.2595C6.57993 7.06593 6.7735 6.90467 7.03156 6.90467C7.22512 6.90467 7.38639 6.96922 7.5477 7.16278L7.87036 6.74345C7.6122 6.51755 7.28976 6.38867 6.93489 6.38867C6.38637 6.38867 5.93475 6.77579 5.93475 7.29175C5.93475 7.74347 6.12849 7.93698 6.70903 8.1628C6.9671 8.25942 7.0639 8.29181 7.12854 8.35631C7.25733 8.42073 7.32197 8.54987 7.32197 8.67875C7.32197 8.93686 7.12854 9.13047 6.83805 9.13047C6.54746 9.13047 6.28962 8.9692 6.16056 8.71109L5.77344 9.09821C6.06389 9.51754 6.41872 9.71106 6.87034 9.71106C7.51544 9.71106 7.96685 9.29173 7.96685 8.67875C7.96694 8.1305 7.77355 7.90468 7.06386 7.64657Z" fill="#2B2B2B"/>
<path d="M21.0024 8.2586C21.4861 8.16197 21.7442 7.83927 21.7442 7.35552C21.7442 6.77497 21.3248 6.41992 20.6152 6.41992H19.6797V9.58136H20.2926V8.32315H20.3895L21.2602 9.58136H22.0022L21.0024 8.2586ZM20.4861 7.87147H20.2926V6.90385H20.4861C20.8732 6.90385 21.0991 7.06507 21.0991 7.38786C21.0991 7.7103 20.8732 7.87147 20.4861 7.87147Z" fill="#2B2B2B"/>
</g>
<defs>
<clipPath id="clip0_4246_332">
<rect width="24" height="16" fill="white"/>
</clipPath>
</defs>
</svg>
