<svg width="24" height="16" viewBox="0 0 24 16" fill="none" xmlns="http://www.w3.org/2000/svg">
<g clip-path="url(#clip0_4246_336)">
<path d="M0 2C0 0.895431 0.895431 0 2 0H22C23.1046 0 24 0.895431 24 2V14C24 15.1046 23.1046 16 22 16H2C0.89543 16 0 15.1046 0 14V2Z" fill="white"/>
<path d="M11.4573 8.5365V10.8484H10.7188V5.13906H12.6775C12.9113 5.13421 13.1437 5.17539 13.3614 5.26022C13.5791 5.34505 13.7778 5.47186 13.9458 5.63332C14.1156 5.78498 14.2507 5.97098 14.3421 6.1788C14.4335 6.38663 14.479 6.61148 14.4757 6.83824C14.4805 7.0662 14.4357 7.29252 14.3442 7.50167C14.2528 7.71082 14.1169 7.89787 13.9458 8.04998C13.6033 8.37433 13.1805 8.53635 12.6775 8.53605H11.4573V8.5365ZM11.4573 5.84196V7.83497H12.6958C12.8316 7.83896 12.9667 7.81477 13.0926 7.76394C13.2184 7.71311 13.3322 7.63676 13.4266 7.53977C13.5205 7.44909 13.5951 7.34063 13.6461 7.2208C13.6971 7.10096 13.7234 6.9722 13.7234 6.84211C13.7234 6.71202 13.6971 6.58325 13.6461 6.46342C13.5951 6.34359 13.5205 6.23512 13.4266 6.14444C13.3333 6.04541 13.22 5.96719 13.094 5.91496C12.968 5.86273 12.8323 5.8377 12.6958 5.8415H11.4573V5.84196Z" fill="#5F6368"/>
<path d="M16.179 6.81445C16.7249 6.81445 17.1558 6.95932 17.4717 7.24904C17.7876 7.53877 17.9454 7.936 17.9451 8.44075V10.8483H17.2387V10.3062H17.2066C16.9008 10.7526 16.494 10.9759 15.9864 10.9759C15.553 10.9759 15.1905 10.8483 14.8988 10.5932C14.7587 10.4761 14.6468 10.3295 14.5711 10.164C14.4954 9.99848 14.4578 9.81829 14.4611 9.63655C14.4611 9.23233 14.615 8.91087 14.9226 8.67216C15.2303 8.43346 15.641 8.3138 16.1547 8.31319C16.5933 8.31319 16.9544 8.39291 17.2382 8.55235V8.38471C17.2391 8.26081 17.2121 8.13828 17.1594 8.026C17.1066 7.91372 17.0293 7.81451 16.9332 7.73556C16.7379 7.56058 16.4833 7.4651 16.2203 7.46816C15.8078 7.46816 15.4813 7.64096 15.241 7.98657L14.5905 7.57977C14.9483 7.06956 15.4778 6.81445 16.179 6.81445ZM15.2235 9.65249C15.223 9.74584 15.245 9.83794 15.2876 9.92115C15.3302 10.0043 15.3922 10.0762 15.4685 10.1308C15.6318 10.2584 15.8346 10.326 16.0423 10.3221C16.354 10.3216 16.6527 10.1984 16.8731 9.97957C17.1177 9.75089 17.2401 9.48258 17.2401 9.17463C17.0098 8.99241 16.6887 8.9013 16.2767 8.9013C15.9767 8.9013 15.7266 8.97313 15.5263 9.11677C15.324 9.26255 15.2235 9.43975 15.2235 9.65249Z" fill="#5F6368"/>
<path d="M21.9974 6.94336L19.5313 12.5716H18.7689L19.6841 10.6023L18.0625 6.94336H18.8653L20.0373 9.74951H20.0533L21.1933 6.94336H21.9974Z" fill="#5F6368"/>
<path d="M8.47627 8.03801C8.47655 7.8145 8.45751 7.59137 8.41939 7.37109H5.30469V8.63432H7.08864C7.05214 8.83607 6.97487 9.0284 6.86151 9.1997C6.74814 9.371 6.60102 9.51773 6.42901 9.63105V10.451H7.49369C8.11709 9.88023 8.47627 9.03611 8.47627 8.03801Z" fill="#4285F4"/>
<path d="M5.3025 11.244C6.19379 11.244 6.94426 10.9533 7.49151 10.4522L6.42682 9.63226C6.13049 9.83179 5.74883 9.94567 5.3025 9.94567C4.44103 9.94567 3.70983 9.36896 3.44836 8.5918H2.35156V9.43683C2.62646 9.98006 3.04798 10.4367 3.56907 10.7558C4.09016 11.0749 4.6903 11.2439 5.3025 11.244Z" fill="#34A853"/>
<path d="M3.44848 8.59075C3.31025 8.18351 3.31025 7.74251 3.44848 7.33527V6.49023H2.35169C2.12044 6.94722 2 7.45157 2 7.96301C2 8.47445 2.12044 8.9788 2.35169 9.43578L3.44848 8.59075Z" fill="#FBBC04"/>
<path d="M5.3025 5.98211C5.77351 5.97447 6.22863 6.1512 6.56948 6.4741L7.51215 5.53795C6.9144 4.9804 6.12252 4.6743 5.3025 4.68381C4.6903 4.68384 4.09016 4.85284 3.56907 5.17195C3.04798 5.49107 2.62646 5.94773 2.35156 6.49095L3.44836 7.33599C3.70983 6.55883 4.44103 5.98211 5.3025 5.98211Z" fill="#EA4335"/>
</g>
<defs>
<clipPath id="clip0_4246_336">
<rect width="24" height="16" fill="white"/>
</clipPath>
</defs>
</svg>
