<svg width="21" height="21" viewBox="0 0 21 21" fill="none" xmlns="http://www.w3.org/2000/svg">
<rect x="1.09375" y="0.890625" width="19" height="19" rx="9.5" stroke="#E0E0E0"/>
<path d="M11.5035 12.3867H10.0094C10.0055 12.1719 10.0035 12.041 10.0035 11.9941C10.0035 11.5098 10.0836 11.1113 10.2438 10.7988C10.4039 10.4863 10.7243 10.1348 11.2047 9.74414C11.6852 9.35352 11.9723 9.09766 12.066 8.97656C12.2106 8.78516 12.2828 8.57422 12.2828 8.34375C12.2828 8.02344 12.1539 7.75 11.8961 7.52344C11.6422 7.29297 11.2985 7.17773 10.8649 7.17773C10.4469 7.17773 10.0973 7.29688 9.81605 7.53516C9.5348 7.77344 9.34144 8.13672 9.23597 8.625L7.72425 8.4375C7.76722 7.73828 8.06409 7.14453 8.61488 6.65625C9.16956 6.16797 9.89613 5.92383 10.7946 5.92383C11.7399 5.92383 12.4918 6.17188 13.0504 6.66797C13.609 7.16016 13.8883 7.73438 13.8883 8.39062C13.8883 8.75391 13.7848 9.09766 13.5778 9.42188C13.3746 9.74609 12.9371 10.1875 12.2653 10.7461C11.9176 11.0352 11.7008 11.2676 11.6149 11.4434C11.5328 11.6191 11.4957 11.9336 11.5035 12.3867ZM10.0094 14.6016V12.9551H11.6559V14.6016H10.0094Z" fill="#808080"/>
</svg>
