<svg width="24" height="16" viewBox="0 0 24 16" fill="none" xmlns="http://www.w3.org/2000/svg">
<g clip-path="url(#clip0_4246_337)">
<path d="M0 2C0 0.895431 0.895431 0 2 0H22C23.1046 0 24 0.895431 24 2V14C24 15.1046 23.1046 16 22 16H2C0.89543 16 0 15.1046 0 14V2Z" fill="white"/>
<path d="M14.5005 3.26349L9.33594 3.28125L9.49243 12.7362L14.657 12.7184L14.5005 3.26349Z" fill="#FF5F00"/>
<path d="M9.67492 8.02808C9.64296 6.10503 10.5044 4.39632 11.8538 3.28797C10.8353 2.48875 9.5584 2.00815 8.17425 2.01289C4.89514 2.02412 2.28693 4.72548 2.34223 8.0532C2.39753 11.3809 5.09522 14.0641 8.37433 14.0529C9.75848 14.0481 11.0192 13.5588 12.011 12.7527C10.6253 11.6705 9.70688 9.95114 9.67492 8.02808Z" fill="#EB001B"/>
<path d="M21.6512 7.94613C21.7065 11.2739 19.0982 13.9752 15.8191 13.9864C14.435 13.9912 13.1581 13.5106 12.1396 12.7114C13.5054 11.603 14.3504 9.8943 14.3185 7.97125C14.2865 6.04819 13.3683 4.34558 11.9823 3.2466C12.9742 2.44049 14.2349 1.9512 15.619 1.94646C18.8982 1.93523 21.5961 4.63514 21.6512 7.94613Z" fill="#F79E1B"/>
</g>
<defs>
<clipPath id="clip0_4246_337">
<rect width="24" height="16" fill="white"/>
</clipPath>
</defs>
</svg>
