<svg width="24" height="16" viewBox="0 0 24 16" fill="none" xmlns="http://www.w3.org/2000/svg">
<g clip-path="url(#clip0_4246_338)">
<path d="M0 2C0 0.895431 0.895431 0 2 0H22C23.1046 0 24 0.895431 24 2V14C24 15.1046 23.1046 16 22 16H2C0.89543 16 0 15.1046 0 14V2Z" fill="white"/>
<path d="M16.1286 5.01562C16.1286 5.0798 16.1286 5.14397 16.0644 5.20814C15.5511 7.77499 13.8826 8.60921 11.7008 8.60921H10.6099C10.3532 8.60921 10.0965 8.80172 10.0965 9.05841L9.51897 12.652L9.39062 13.6787C9.39062 13.8712 9.51896 13.9996 9.64731 13.9996H11.6366C11.8933 13.9996 12.0858 13.8071 12.0858 13.6146V13.4862L12.4708 11.1761V11.0477C12.535 10.791 12.7275 10.6627 12.92 10.6627H13.2409C15.166 10.6627 16.642 9.89263 17.027 7.64664C17.2195 6.68408 17.0912 5.91402 16.642 5.40065C16.5136 5.27231 16.3211 5.14397 16.1286 5.01562Z" fill="#2199D6"/>
<path d="M15.6203 4.82337C15.5561 4.82337 15.4919 4.7592 15.3636 4.7592C15.2994 4.7592 15.1711 4.69503 15.1069 4.69503C14.786 4.63086 14.4652 4.63086 14.1443 4.63086H11.1925C11.1283 4.63086 11.0641 4.63086 11 4.69503C10.8716 4.7592 10.7433 4.88754 10.7433 5.01589L10.1016 8.9945V9.12284C10.1657 8.86615 10.3582 8.67364 10.6149 8.67364H11.7058C13.8877 8.67364 15.5561 7.77524 16.0695 5.27257C16.0695 5.2084 16.0695 5.14423 16.1336 5.08006C16.0053 5.01589 15.877 4.95172 15.7486 4.88754C15.6844 4.82337 15.6203 4.82337 15.6203 4.82337Z" fill="#252C5E"/>
<path d="M10.7409 5.01604C10.7409 4.8877 10.8692 4.75936 10.9976 4.69519C11.0617 4.69519 11.1259 4.63102 11.1901 4.63102H14.142C14.4628 4.63102 14.8478 4.63101 15.1045 4.69519C15.1687 4.69519 15.297 4.69519 15.3612 4.75936C15.4254 4.75936 15.4896 4.82353 15.6179 4.82353C15.6821 4.82353 15.6821 4.82353 15.7462 4.8877C15.8746 4.95187 16.0029 5.01604 16.1313 5.08021C16.2596 4.11765 16.1313 3.47593 15.6179 2.89839C15.0404 2.25668 14.0136 2 12.7302 2H8.9441C8.68741 2 8.43073 2.19251 8.43073 2.4492L6.89062 12.3316C6.89062 12.5241 7.01897 12.7166 7.21148 12.7166H9.52164L10.0992 8.99465L10.7409 5.01604Z" fill="#263577"/>
</g>
<defs>
<clipPath id="clip0_4246_338">
<rect width="24" height="16" fill="white"/>
</clipPath>
</defs>
</svg>
