<svg width="24" height="16" viewBox="0 0 24 16" fill="none" xmlns="http://www.w3.org/2000/svg">
<g clip-path="url(#clip0_4246_345)">
<path d="M0 2C0 0.895431 0.895431 0 2 0H22C23.1046 0 24 0.895431 24 2V14C24 15.1046 23.1046 16 22 16H2C0.89543 16 0 15.1046 0 14V2Z" fill="white"/>
<path d="M20.6514 5.01758H19.3941C19.0139 5.01758 18.7215 5.13454 18.5461 5.51465L16.1484 10.9825H17.8443C17.8443 10.9825 18.1367 10.2515 18.1952 10.0761C18.3707 10.0761 20.0373 10.0761 20.2712 10.0761C20.3297 10.2807 20.4759 10.9533 20.4759 10.9533H21.9964L20.6514 5.01758ZM18.6631 8.84799C18.8093 8.49711 19.3063 7.18132 19.3063 7.18132C19.3063 7.21056 19.4525 6.83044 19.511 6.62577L19.628 7.15208C19.628 7.15208 19.9496 8.58483 20.0081 8.87723H18.6631V8.84799Z" fill="#3362AB"/>
<path d="M16.2663 9.02325C16.2663 10.2513 15.1552 11.07 13.4301 11.07C12.6991 11.07 11.9973 10.9238 11.6172 10.7484L11.8511 9.40337L12.0558 9.49109C12.5821 9.72501 12.933 9.81273 13.5763 9.81273C14.0441 9.81273 14.5412 9.63729 14.5412 9.22793C14.5412 8.96478 14.3365 8.78934 13.6932 8.49694C13.0792 8.20454 12.2605 7.73671 12.2605 6.88875C12.2605 5.71916 13.4008 4.92969 15.009 4.92969C15.623 4.92969 16.1494 5.04665 16.471 5.19285L16.2371 6.4794L16.1201 6.36244C15.8277 6.24548 15.4476 6.12852 14.892 6.12852C14.278 6.15776 13.9856 6.42092 13.9856 6.65483C13.9856 6.91799 14.3365 7.12267 14.892 7.38583C15.8277 7.82442 16.2663 8.3215 16.2663 9.02325Z" fill="#3362AB"/>
<path d="M2 5.07594L2.02924 4.95898H4.54386C4.89474 4.95898 5.15789 5.07594 5.24561 5.45606L5.80117 8.08764C5.24561 6.68413 3.95906 5.54378 2 5.07594Z" fill="#F9B50B"/>
<path d="M9.34037 5.01752L6.79651 10.9532H5.07136L3.60938 5.98243C4.66201 6.65495 5.5392 7.70758 5.86084 8.43857L6.03628 9.05261L7.61522 4.98828H9.34037V5.01752Z" fill="#3362AB"/>
<path d="M10.0156 4.98828H11.6238L10.6004 10.9532H8.99219L10.0156 4.98828Z" fill="#3362AB"/>
</g>
<defs>
<clipPath id="clip0_4246_345">
<rect width="24" height="16" fill="white"/>
</clipPath>
</defs>
</svg>
